HIERARCHY
ROOT Hips
{
  OFFSET 74.0196 97.4445 -31.1285
  CHANNELS 6 Xposition Yposition Zposition Zrotation Xrotation Yrotation
  JOINT RightUpLeg
  {
    OFFSET -8.9458 -8.66707 0.101652
    CHANNELS 3 Zrotation Xrotation Yrotation
    JOINT RightLeg
    {
      OFFSET -2.94875e-013 -44.4227 1.3727
      CHANNELS 3 Zrotation Xrotation Yrotation
      JOINT RightFoot
      {
        OFFSET 0.253549 -42.0924 -1.46059
        CHANNELS 3 Zrotation Xrotation Yrotation
        JOINT RightToes
        {
          OFFSET 0.04 -4.41509 8.4991
          CHANNELS 3 Zrotation Xrotation Yrotation
          End Site
          {
            OFFSET -0.08 -0.137448 9.77979
          }
        }
      }
    }
  }
  JOINT Spine
  {
    OFFSET -5.68434e-014 11.8905 -6.39488e-014
    CHANNELS 3 Zrotation Xrotation Yrotation
    JOINT Spine1
    {
      OFFSET 5.68434e-014 25.6574 0.127663
      CHANNELS 3 Zrotation Xrotation Yrotation
      JOINT HEad
      {
        OFFSET 4.26326e-014 8.73416 0.011341
        CHANNELS 3 Zrotation Xrotation Yrotation
        End Site
        {
          OFFSET -0.29 12.7742 2.51395
        }
      }
      JOINT LeftShoulder1
      {
        OFFSET 8.99 -0.362252 -0.22
        CHANNELS 3 Zrotation Xrotation Yrotation
        JOINT LeftArm
        {
          OFFSET 10.2827 -0.00338 0.322123
          CHANNELS 3 Zrotation Xrotation Yrotation
          JOINT LeftForeArm
          {
            OFFSET 32.7669 0.099144 -1.42434
            CHANNELS 3 Zrotation Xrotation Yrotation
            JOINT LeftHand
            {
              OFFSET 27.5643 0.085362 1.02216
              CHANNELS 3 Zrotation Xrotation Yrotation
              End Site
              {
                OFFSET 16.7443 -0.6 1.50291
              }
            }
          }
        }
      }
      JOINT RightShoulder
      {
        OFFSET -8.99 -0.362252 -0.22
        CHANNELS 3 Zrotation Xrotation Yrotation
        JOINT RightArm
        {
          OFFSET -10.2827 -0.00338 0.322123
          CHANNELS 3 Zrotation Xrotation Yrotation
          JOINT RightForeArm
          {
            OFFSET -32.8971 0.099144 -1.42434
            CHANNELS 3 Zrotation Xrotation Yrotation
            JOINT RightHand
            {
              OFFSET -27.4921 0.085362 1.02216
              CHANNELS 3 Zrotation Xrotation Yrotation
              End Site
              {
                OFFSET -16.6312 -0.6 1.50291
              }
            }
          }
        }
      }
    }
  }
  JOINT LeftUpLeg
  {
    OFFSET 8.9458 -8.66707 0.101652
    CHANNELS 3 Zrotation Xrotation Yrotation
    JOINT LeftLeg
    {
      OFFSET 7.10543e-014 -44.4227 1.3727
      CHANNELS 3 Zrotation Xrotation Yrotation
      JOINT LeftFoot
      {
        OFFSET -0.253549 -42.0924 -1.46059
        CHANNELS 3 Zrotation Xrotation Yrotation
        JOINT LeftToes
        {
          OFFSET -0.04 -4.41509 8.4991
          CHANNELS 3 Zrotation Xrotation Yrotation
          End Site
          {
            OFFSET 0.08 -0.047448 9.77979
          }
        }
      }
    }
  }
}
MOTION
Frames:	16
Frame Time:	0.0166667
130.913 96.0912 2.35394 4.76 3.02659 -122.33 -18.162 -11.7255 -1.62955 14.5723 44.1403 -17.8928 7.21111 -9.68228 -0.0562923 -4.7875 -8.69363 -2.31448 0.790034 7.16415 3.60676 2.224 14.1635 7.27319 -5.0338 -9.64578 9.82863 -5.03302e-021 -3.88251e-019 1.21329e-020 -91.5551 -57.8902 -53.6915 -1.54078 48.4722 -95.4345 37.6961 2.95517 -16.3435 14.9486 4.09303 20.437 73.0128 -23.2182 42.2485 -15.6936 40.9224 141.498 -17.2469 15.0512 -39.5069 22.7323 -23.351 5.26641 2.59111 24.8995 -14.4003 -15.4686 -9.86724 -0.259276 -3.07985 3.84582 5.97187 
131.025 95.6976 1.81205 4.23067 3.32446 -123.021 -18.8762 -11.0819 -0.47266 13.0054 41.2319 -16.7301 8.01435 -10.5981 0.0171205 -3.52464 -6.60992 -2.26359 1.08995 7.25878 3.45613 2.9362 14.402 6.85561 -4.65623 -8.51041 10.4872 -5.03302e-021 -3.88251e-019 1.21329e-020 -81.0256 -58.6126 -40.6124 -0.186442 45.9325 -99.2092 37.4995 2.74817 -17.0598 15.4276 4.10461 19.9794 72.2576 -21.9867 40.9273 -15.2528 40.098 141.058 -17.2018 15.0217 -39.4073 23.6554 -22.9187 5.36879 1.72868 26.1055 -13.4718 -15.109 -9.3515 -0.186007 -1.80095 2.33648 5.09572 
131.223 95.1663 1.14306 3.54793 3.58679 -123.67 -19.58 -10.3688 0.716771 12.0414 38.6525 -15.9795 8.70768 -11.2914 0.0842742 -2.68505 -5.22602 -2.32015 1.23547 7.41843 3.29703 3.55106 14.7621 6.39712 -4.30325 -7.5665 11.0994 -5.03302e-021 -3.88251e-019 1.21329e-020 -71.1798 -57.8047 -27.6151 0.0331037 43.6457 -101.82 36.8269 2.47492 -18.2814 15.8912 4.09951 19.47 71.5483 -20.6648 40.0328 -15.1314 38.9898 140.849 -16.9894 14.9918 -39.6469 24.5372 -22.4606 5.49985 0.90562 27.4058 -12.5921 -14.8168 -8.63536 -0.0917587 -0.232963 0.42019 4.08039 
131.523 94.5177 0.330692 2.75744 3.81333 -124.275 -20.2409 -9.7375 1.77472 11.649 36.7415 -15.5898 9.032 -11.6301 0.119735 -2.59003 -5.08923 -2.48532 1.28142 7.63886 3.13711 4.03727 15.2313 5.94138 -3.95786 -6.87731 11.6264 -5.03302e-021 -3.88251e-019 1.21329e-020 -63.5207 -55.8189 -16.2524 -0.574782 41.7237 -103.552 35.6906 2.19612 -19.8892 16.2605 4.06629 18.9286 71.0269 -19.3474 39.6235 -15.3218 37.7516 140.843 -16.6256 14.9586 -40.1911 25.4061 -21.9417 5.5959 0.106354 28.6719 -11.7451 -14.6106 -7.82249 0.0102933 1.47642 -1.74513 3.06606 
131.926 93.8097 -0.621353 1.92228 4.01772 -124.832 -20.7952 -9.25724 2.48932 11.6973 35.6398 -15.4068 8.80156 -11.4638 0.0996664 -3.51193 -6.63472 -2.74537 1.34306 7.90389 2.98536 4.37058 15.7809 5.54219 -3.6242 -6.47958 12.0299 -5.03302e-021 -3.88251e-019 1.21329e-020 -58.5785 -53.2955 -7.2296 -1.73942 40.1991 -104.654 34.1715 1.98215 -21.6956 16.4605 3.99857 18.3881 70.815 -18.156 39.6976 -15.7712 36.5644 140.989 -16.1552 14.9198 -40.9587 26.2766 -21.2979 5.58593 -0.677891 29.7031 -10.9222 -14.4624 -6.98231 0.112812 3.1509 -3.92958 2.21575 
132.447 93.0873 -1.71186 1.09514 4.19877 -125.322 -21.1962 -8.96686 2.65871 12.0153 35.4079 -15.275 7.97683 -10.7212 0.0240476 -5.61608 -10.0721 -3.14682 1.45386 8.19168 2.85849 4.53517 16.3682 5.24914 -3.33471 -6.37561 12.2819 -5.03302e-021 -3.88251e-019 1.21329e-020 -56.0344 -50.8664 -0.52492 -3.21563 39.0598 -105.351 32.4281 1.87508 -23.5064 16.4437 3.89785 17.8868 70.9723 -17.2088 40.191 -16.3963 35.6014 141.239 -15.652 14.8795 -41.8366 27.1381 -20.5235 5.40743 -1.42361 30.3738 -10.1499 -14.3293 -6.18202 0.208325 4.60539 -5.85345 1.68078 
133.103 92.3926 -2.93982 0.320042 4.34845 -125.699 -21.4255 -8.83247 2.18261 12.4412 35.9365 -15.1229 6.66573 -9.39889 -0.0809 -8.90109 -15.2491 -3.84182 1.58826 8.47305 2.77188 4.52921 16.9367 5.09133 -3.14501 -6.5288 12.3712 -5.03302e-021 -3.88251e-019 1.21329e-020 -55.2284 -48.9599 4.15182 -4.77752 38.2644 -105.841 30.6671 1.86577 -25.1864 16.2068 3.77333 17.4603 71.4759 -16.5954 40.9904 -17.0964 34.999 141.552 -15.2101 14.8501 -42.6964 27.9588 -19.6549 5.0199 -2.06376 30.5997 -9.48787 -14.1756 -5.44942 0.293326 5.66167 -7.22887 1.56564 
133.903 91.7681 -4.30117 -0.36569 4.45179 -125.895 -21.4991 -8.76718 1.12622 12.8952 36.9641 -15.0232 5.07241 -7.59346 -0.174275 -13.1657 -21.5638 -5.02531 1.68257 8.71371 2.73307 4.37036 17.4196 5.06421 -3.11862 -6.86249 12.3072 -5.03302e-021 -3.88251e-019 1.21329e-020 -55.5179 -47.751 7.0891 -6.23589 37.7513 -106.295 29.0834 1.90386 -26.6884 15.7939 3.64005 17.1368 72.2239 -16.3684 41.956 -17.763 34.8405 141.886 -14.9246 14.849 -43.4106 28.692 -18.7644 4.41555 -2.49592 30.3318 -9.01158 -13.9906 -4.76538 0.369707 6.15895 -7.80897 1.90828 
134.844 91.2611 -5.78302 -0.925073 4.49055 -125.833 -21.4449 -8.67239 -0.297958 13.4087 38.1478 -15.1641 3.41486 -5.51663 -0.221913 -18.0243 -28.0937 -6.78261 1.67725 8.87896 2.73534 4.09818 17.7474 5.12631 -3.30514 -7.26744 12.1208 -5.03302e-021 -3.88251e-019 1.21329e-020 -56.4252 -47.211 8.51284 -7.45599 37.4523 -106.841 27.8113 1.93119 -28.022 15.2862 3.5159 16.9361 73.0617 -16.5434 42.9445 -18.2926 35.1491 142.19 -14.8648 14.8897 -43.8653 29.2886 -17.9464 3.62752 -2.61077 29.5494 -8.7853 -13.7977 -4.07712 0.443973 5.9631 -7.42774 2.68541 
135.899 90.9279 -7.35839 -1.31847 4.44772 -125.45 -21.2687 -8.46726 -1.81407 14.0726 39.1345 -15.7338 1.85913 -3.46203 -0.212537 -22.9395 -33.9219 -8.95803 1.55845 8.93853 2.75561 3.76819 17.859 5.20963 -3.71798 -7.61906 11.8614 -5.03302e-021 -3.88251e-019 1.21329e-020 -57.6569 -47.193 8.61126 -8.35196 37.3046 -107.566 26.9139 1.91158 -29.1856 14.7822 3.41856 16.8705 73.8198 -17.0971 43.8255 -18.604 35.8791 142.411 -15.0499 14.9706 -43.9779 29.7077 -17.2875 2.73075 -2.33491 28.2441 -8.82887 -13.6487 -3.32019 0.525251 4.9854 -6.02943 3.83868 
137.021 90.8303 -8.98687 -1.50503 4.31713 -124.719 -20.9241 -8.10676 -3.17416 14.925 39.6255 -16.7853 0.507695 -1.74978 -0.159178 -27.2494 -38.4005 -11.137 1.3768 8.87184 2.75806 3.43575 17.7145 5.2421 -4.31903 -7.80351 11.587 -5.03302e-021 -3.88251e-019 1.21329e-020 -59.0586 -47.5076 7.57102 -8.8663 37.2544 -108.525 26.4052 1.84122 -30.1137 14.375 3.36242 16.9431 74.3508 -17.9588 44.4897 -18.658 36.9066 142.504 -15.4332 15.0709 -43.725 29.9313 -16.8394 1.83089 -1.67601 26.4156 -9.09091 -13.6066 -2.4477 0.622324 3.21078 -3.68898 5.30679 
138.154 91.0098 -10.6256 -1.4599 4.09825 -123.666 -20.3324 -7.6167 -4.20656 15.8755 39.4765 -18.1841 -0.564693 -0.687536 -0.0915466 -30.2488 -41.2011 -12.7569 1.19294 8.6733 2.71211 3.13568 17.3049 5.17291 -5.01923 -7.74688 11.3475 -5.03302e-021 -3.88251e-019 1.21329e-020 -60.5502 -47.9706 5.60016 -8.95552 37.2525 -109.743 26.276 1.74167 -30.6812 14.1322 3.35622 17.1454 74.5555 -19.0066 44.8533 -18.4737 38.0338 142.463 -15.9093 15.158 -43.169 29.9679 -16.6231 1.0399 -0.750404 24.1195 -9.43755 -13.7236 -1.47397 0.738724 0.728025 -0.624287 7.0386 
139.248 91.4812 -12.2344 -1.18537 3.79556 -122.365 -19.4204 -7.07233 -4.82386 16.702 38.6896 -19.6489 -1.26592 -0.484452 -0.0452248 -31.3767 -42.2193 -13.3302 1.05281 8.35358 2.6049 2.87111 16.6554 4.98916 -5.69982 -7.43466 11.1659 -5.03302e-021 -3.88251e-019 1.21329e-020 -62.0685 -48.4278 2.9339 -8.59745 37.2487 -111.208 26.5034 1.64623 -30.759 14.0846 3.40182 17.457 74.3965 -20.0816 44.8614 -18.1308 39.0225 142.337 -16.3457 15.2044 -42.4628 29.8423 -16.6262 0.445448 0.232546 21.4824 -9.66676 -14.0107 -0.487451 0.86925 -2.25784 2.82122 8.97362 
140.261 92.2308 -13.7798 -0.714146 3.4156 -120.919 -18.1615 -6.56584 -5.02407 17.1234 37.3872 -20.8591 -1.46253 -1.18366 -0.0463478 -30.4427 -41.4636 -12.6829 0.969398 7.93885 2.44563 2.61663 15.8214 4.71617 -6.24735 -6.91394 11.0284 -5.03302e-021 -3.88251e-019 1.21329e-020 -63.5387 -48.7699 -0.176964 -7.81349 37.1936 -112.87 27.0432 1.58766 -30.2862 14.2247 3.49431 17.8482 73.8997 -21.0244 44.4956 -17.7511 39.6548 142.223 -16.6271 15.2023 -41.8129 29.5797 -16.8183 0.0910784 1.03258 18.7164 -9.56242 -14.424 0.356782 0.996718 -5.44206 6.2413 10.9971 
141.168 93.2172 -15.2365 -0.103147 2.96147 -119.441 -16.6075 -6.17786 -4.89039 16.9103 35.7766 -21.5609 -0.997871 -2.6498 -0.0950121 -27.7092 -39.0026 -11.0431 0.913967 7.46724 2.2614 2.33384 14.8782 4.40451 -6.58813 -6.27644 10.8914 -5.03302e-021 -3.88251e-019 1.21329e-020 -64.8779 -48.9393 -3.49061 -6.68499 37.0501 -114.632 27.8214 1.58881 -29.3107 14.5132 3.62312 18.2863 73.1457 -21.7215 43.7815 -17.454 39.7998 142.229 -16.6876 15.1619 -41.4112 29.1856 -17.1782 -0.022573 1.45935 16.1215 -8.97927 -14.8789 0.867299 1.09223 -8.46868 9.26577 12.9103 
141.964 94.3772 -16.5843 0.581505 2.43364 -118.031 -14.8917 -5.95575 -4.57378 15.977 34.084 -21.6213 0.242377 -4.59618 -0.158087 -23.757 -34.9927 -8.92085 0.831634 6.98174 2.08691 1.99131 13.9068 4.11283 -6.70725 -5.63176 10.703 -5.03302e-021 -3.88251e-019 1.21329e-020 -66.0161 -48.9292 -6.80004 -5.34674 36.8103 -116.366 28.742 1.65525 -27.9801 14.8906 3.77393 18.7407 72.2527 -22.1399 42.7919 -17.3099 39.4551 142.424 -16.5216 15.0996 -41.3621 28.6367 -17.7031 0.0830755 1.43065 14.037 -7.92399 -15.2822 0.882698 1.12469 -10.9916 11.6375 14.4485 
